<svg width="26" height="auto" viewBox="0 0 67 41" fill="none" xmlns="http://www.w3.org/2000/svg">
	<path d="M18.5553 7C17.1571 7 16 8.14887 16 9.54706V33.3504C16 34.7486 17.1571 35.8974 18.5553 35.8974H38.1031V27.3995H17.7019V9.54706C17.7019 9.06138 18.0697 8.70026 18.5553 8.70026H50.8615C51.3472 8.70026 51.7083 9.06138 51.7083 9.54706V10.3939H53.4086V9.54706C53.4086 8.14887 52.2597 7 50.8615 7H18.5553ZM42.357 12.0941C40.9588 12.0941 39.8033 13.2513 39.8033 14.6494V38.4527C39.8033 39.8509 40.9588 40.9998 42.357 40.9998H54.2869C53.7442 40.2865 53.4086 39.4098 53.4086 38.4527V34.2005H41.5036V15.4979H58.5109V20.5986H60.2112V14.6494C60.2112 13.2512 59.0557 12.0941 57.6575 12.0941H42.357ZM20.2423 13.7827C20.1301 13.784 20.0193 13.8075 19.9162 13.8518C19.8131 13.8962 19.7198 13.9605 19.6417 14.0411C19.5636 14.1217 19.5022 14.2169 19.4611 14.3213C19.42 14.4257 19.4 14.5372 19.4021 14.6494V16.3497C19.3996 16.4629 19.4197 16.5756 19.4613 16.6809C19.5029 16.7863 19.5651 16.8822 19.6443 16.9632C19.7235 17.0442 19.818 17.1086 19.9224 17.1526C20.0269 17.1965 20.139 17.219 20.2523 17.219C20.3655 17.219 20.4777 17.1965 20.5821 17.1526C20.6865 17.1086 20.7811 17.0442 20.8603 16.9632C20.9394 16.8822 21.0017 16.7863 21.0432 16.6809C21.0848 16.5756 21.1049 16.4629 21.1024 16.3497V14.6494C21.1046 14.5356 21.0839 14.4224 21.0416 14.3167C20.9992 14.211 20.9361 14.1149 20.8558 14.034C20.7756 13.9532 20.68 13.8892 20.5746 13.8461C20.4692 13.8029 20.3562 13.7814 20.2423 13.7827V13.7827ZM20.2423 18.8851C20.1301 18.8864 20.0193 18.9099 19.9162 18.9542C19.8131 18.9986 19.7198 19.0629 19.6417 19.1435C19.5636 19.224 19.5022 19.3193 19.4611 19.4237C19.42 19.5281 19.4 19.6396 19.4021 19.7518V24.8459C19.3996 24.9592 19.4197 25.0718 19.4613 25.1771C19.5029 25.2825 19.5651 25.3784 19.6443 25.4594C19.7235 25.5404 19.818 25.6048 19.9224 25.6488C20.0269 25.6927 20.139 25.7154 20.2523 25.7154C20.3655 25.7154 20.4777 25.6927 20.5821 25.6488C20.6865 25.6048 20.7811 25.5404 20.8603 25.4594C20.9394 25.3784 21.0017 25.2825 21.0432 25.1771C21.0848 25.0718 21.1049 24.9592 21.1024 24.8459V19.7518C21.1046 19.6379 21.0839 19.5248 21.0416 19.4191C20.9992 19.3134 20.9361 19.2172 20.8558 19.1364C20.7756 19.0556 20.68 18.9916 20.5746 18.9484C20.4692 18.9053 20.3562 18.8837 20.2423 18.8851V18.8851ZM44.0456 18.8851C43.9334 18.8864 43.8226 18.9099 43.7195 18.9542C43.6164 18.9986 43.5232 19.0629 43.4451 19.1435C43.367 19.224 43.3056 19.3193 43.2645 19.4237C43.2233 19.5281 43.2033 19.6396 43.2055 19.7518V21.4521C43.203 21.5652 43.2232 21.6778 43.2648 21.7831C43.3064 21.8884 43.3687 21.9843 43.4479 22.0652C43.527 22.1461 43.6216 22.2103 43.7259 22.2542C43.8303 22.2981 43.9424 22.3208 44.0556 22.3208C44.1688 22.3208 44.2809 22.2981 44.3852 22.2542C44.4896 22.2103 44.5842 22.1461 44.6633 22.0652C44.7425 21.9843 44.8047 21.8884 44.8464 21.7831C44.888 21.6778 44.9082 21.5652 44.9057 21.4521V19.7518C44.9079 19.6379 44.8873 19.5248 44.8449 19.4191C44.8025 19.3134 44.7394 19.2172 44.6592 19.1364C44.5789 19.0556 44.4833 18.9916 44.3779 18.9484C44.2725 18.9053 44.1595 18.8837 44.0456 18.8851V18.8851ZM57.6575 22.2988C56.2593 22.2988 55.1088 23.4477 55.1088 24.8459V38.4527C55.1088 39.8509 56.2593 40.9998 57.6575 40.9998H64.4601C65.8583 40.9998 67.0071 39.8509 67.0071 38.4527V24.8459C67.0071 23.4477 65.8583 22.2988 64.4601 22.2988H57.6575ZM44.0456 23.9874C43.8205 23.9901 43.6055 24.082 43.448 24.243C43.2905 24.4039 43.2033 24.6207 43.2055 24.8459V29.9483C43.203 30.0615 43.2232 30.174 43.2648 30.2793C43.3064 30.3846 43.3687 30.4805 43.4479 30.5614C43.527 30.6423 43.6216 30.7066 43.7259 30.7505C43.8303 30.7943 43.9424 30.8169 44.0556 30.8169C44.1688 30.8169 44.2809 30.7943 44.3852 30.7505C44.4896 30.7066 44.5842 30.6423 44.6633 30.5614C44.7425 30.4805 44.8047 30.3846 44.8464 30.2793C44.888 30.174 44.9082 30.0615 44.9057 29.9483V24.8459C44.9068 24.7327 44.8853 24.6204 44.8425 24.5157C44.7996 24.4109 44.7363 24.3158 44.6562 24.2358C44.5761 24.1559 44.4808 24.0928 44.3759 24.0501C44.2711 24.0075 44.1588 23.9861 44.0456 23.9874ZM56.8107 25.7009H65.3069V37.5977H56.8107V25.7009ZM33.8143 30.8017H35.5561C36.6898 30.8017 36.6898 32.5036 35.5561 32.5036H33.8542C32.7204 32.5579 32.6398 30.8561 33.8143 30.8017H33.8143ZM49.1613 35.8974H50.8615C51.0838 35.9023 51.2953 35.994 51.4507 36.1529C51.6062 36.3118 51.6932 36.5253 51.6932 36.7476C51.6932 36.9699 51.6062 37.1833 51.4507 37.3422C51.2953 37.5011 51.0838 37.5928 50.8615 37.5977H49.1613C48.9391 37.5928 48.7276 37.5011 48.5721 37.3422C48.4166 37.1833 48.3296 36.9699 48.3296 36.7476C48.3296 36.5253 48.4166 36.3118 48.5721 36.1529C48.7276 35.994 48.9391 35.9023 49.1613 35.8974V35.8974ZM29.8775 37.5977C29.5784 38.1289 29.1302 38.7061 28.4396 39.2995H27.0515C26.9383 39.2971 26.8258 39.3172 26.7205 39.3589C26.6152 39.4005 26.5193 39.4627 26.4383 39.5419C26.3574 39.6211 26.2931 39.7156 26.2492 39.82C26.2053 39.9244 26.1827 40.0364 26.1827 40.1497C26.1827 40.2629 26.2053 40.3751 26.2492 40.4794C26.2931 40.5838 26.3574 40.6783 26.4383 40.7575C26.5193 40.8367 26.6152 40.8989 26.7205 40.9405C26.8258 40.9821 26.9383 41.0023 27.0515 40.9998H38.9831C38.44 40.2869 38.1031 39.4109 38.1031 38.4527V37.5977H29.8775Z" fill="#616475" />
</svg>
